HIERARCHY
ROOT Hips
{
	OFFSET -3.958830 18.904000 13.208200
	CHANNELS 6 Xposition Yposition Zposition Zrotation Yrotation Xrotation 
	JOINT LHipJoint
	{
		OFFSET 0.000000 0.000000 0.000000
		CHANNELS 3 Zrotation Yrotation Xrotation
		JOINT LeftUpLeg
		{
			OFFSET 1.800000 -1.400000 0.085000
			CHANNELS 3 Zrotation Yrotation Xrotation
			JOINT LeftLeg
			{
				OFFSET 2.215000 -6.000000 0.000000
				CHANNELS 3 Zrotation Yrotation Xrotation
				JOINT LeftFoot
				{
					OFFSET 2.500000 -6.900000 0.000000
					CHANNELS 3 Zrotation Yrotation Xrotation
					JOINT LeftToeBase
					{
						OFFSET 0.200000 -0.500000 1.950000
						CHANNELS 3 Zrotation Yrotation Xrotation
						End Site
						{
							OFFSET 0.000000 0.000000 0.000000
						}
					}
				}
			}
		}
	}
	JOINT RHipJoint
	{
		OFFSET 0.000000 0.000000 0.000000
		CHANNELS 3 Zrotation Yrotation Xrotation
		JOINT RightUpLeg
		{
			OFFSET -1.800000 -1.400000 0.085000
			CHANNELS 3 Zrotation Yrotation Xrotation
			JOINT RightLeg
			{
				OFFSET -2.215000 -6.000000 0.000000
				CHANNELS 3 Zrotation Yrotation Xrotation
				JOINT RightFoot
				{
					OFFSET -2.500000 -6.900000 0.000000
					CHANNELS 3 Zrotation Yrotation Xrotation
					JOINT RightToeBase
					{
						OFFSET -0.200000 -0.500000 1.950000
						CHANNELS 3 Zrotation Yrotation Xrotation
						End Site
						{
							OFFSET 0.000000 0.000000 0.000000
						}
					}
				}
			}
		}
	}
	JOINT LowerBack
	{
		OFFSET 0.000000 0.000000 0.000000
		CHANNELS 3 Zrotation Yrotation Xrotation
		JOINT Spine
		{
			OFFSET -0.087000 1.940000 -0.288900
			CHANNELS 3 Zrotation Yrotation Xrotation
			JOINT Spine1
			{
				OFFSET 0.000000 1.950000 0.060000
				CHANNELS 3 Zrotation Yrotation Xrotation
				JOINT Neck
				{
					OFFSET 0.000000 0.000000 0.000000
					CHANNELS 3 Zrotation Yrotation Xrotation
					JOINT Neck1
					{
						OFFSET 0.000000 1.600000 0.340000
						CHANNELS 3 Zrotation Yrotation Xrotation
						JOINT Head
						{
							OFFSET 0.000000 1.667000 -0.240000
							CHANNELS 3 Zrotation Yrotation Xrotation
							End Site
							{
								OFFSET 0.000000 0.000000 0.000000
							}
						}
					}
				}
				JOINT LeftShoulder
				{
					OFFSET 0.000000 0.000000 0.000000
					CHANNELS 3 Zrotation Yrotation Xrotation
					JOINT LeftArm
					{
						OFFSET 2.700000 1.550000 -0.730000
						CHANNELS 3 Zrotation Yrotation Xrotation
						JOINT LeftForeArm
						{
							OFFSET 5.450000 0.000000 0.000000
							CHANNELS 3 Zrotation Yrotation Xrotation
							JOINT LeftHand
							{
								OFFSET 3.450000 0.000000 0.000000
								CHANNELS 3 Zrotation Yrotation Xrotation
								JOINT LeftHandIndex1
								{
									OFFSET 0.750000 0.000000 0.000000
									CHANNELS 3 Zrotation Yrotation Xrotation
									End Site
									{
										OFFSET 0.000000 0.000000 0.000000
									}
								}
							}
						}
					}
				}
				JOINT RightShoulder
				{
					OFFSET 0.000000 0.000000 0.000000
					CHANNELS 3 Zrotation Yrotation Xrotation
					JOINT RightArm
					{
						OFFSET -2.700000 1.550000 -0.730000
						CHANNELS 3 Zrotation Yrotation Xrotation
						JOINT RightForeArm
						{
							OFFSET -5.450000 0.000000 0.000000
							CHANNELS 3 Zrotation Yrotation Xrotation
							JOINT RightHand
							{
								OFFSET -3.450000 0.000000 0.000000
								CHANNELS 3 Zrotation Yrotation Xrotation
								JOINT RightHandIndex1
								{
									OFFSET -0.750000 0.000000 0.000000
									CHANNELS 3 Zrotation Yrotation Xrotation
									End Site
									{
										OFFSET 0.000000 0.000000 0.000000
									}
								}
							}
						}
					}
				}
			}
		}
	}
}
MOTION
Frames: 13
Frame Time: 0.016667
-0.709980 17.073850 -1.690610 -5.588258 -34.750913 8.419275 -14.786464 13.909939 3.588496 4.922846 -2.673265 -20.976764 -5.042003 3.721893 6.691818 -1.732557 4.024292 3.583206 -0.675780 -1.312620 -0.875530 18.370720 -10.947759 2.746335 -7.223060 0.095330 -5.748697 5.290845 -5.841353 9.329718 -0.264168 -3.669107 3.560580 -0.500660 1.373260 0.134970 -3.940179 -3.119861 -7.607225 14.781132 0.930243 10.387004 -10.247339 1.505766 -13.782232 2.427523 -8.355726 -12.251146 -28.505204 18.531217 48.878151 6.655590 2.710920 -8.826140 -13.821583 3.139417 1.365304 -56.630293 -3.143343 -2.197594 28.005482 -20.518433 -7.895082 -4.275636 1.673676 1.544990 0.370470 -0.342800 0.285190 9.476695 2.610593 6.184678 70.020759 -5.011097 -10.686997 -22.506251 8.180540 -0.405092 1.596013 -0.298883 -1.248890 1.192230 1.103740 -0.255120 
-0.707310 17.039260 -1.758100 -4.930900 -36.157954 7.841879 -14.714400 13.746300 3.585098 5.501032 -2.878688 -21.755436 -6.288006 4.169374 8.544384 -1.713334 4.135206 3.520167 -0.615520 -1.223770 -0.841760 18.441107 -11.062454 2.759721 -7.906717 0.121891 -5.618411 4.592119 -5.599981 8.423680 -0.298378 -3.657146 3.556595 -0.455080 1.349970 0.130930 -4.206096 -2.661596 -7.539396 15.567613 0.982692 10.538327 -12.966379 1.231706 -13.865830 2.534614 -8.517236 -11.963861 -28.799138 19.613075 49.165224 7.475460 3.420890 -9.804250 -15.294823 2.888814 0.939787 -53.488138 -2.822007 -2.594369 29.799909 -19.854086 -7.848260 -4.258816 1.683137 1.546160 0.349310 -0.312280 0.304000 10.258829 2.774328 5.898625 69.197567 -4.008548 -8.748369 -17.368136 3.853737 0.709205 1.671524 -0.262380 -1.228610 1.201580 1.062550 -0.246450 
-0.706770 17.006940 -1.819110 -4.808767 -37.775858 7.262418 -14.636389 13.595567 3.578853 6.693912 -2.955802 -22.373487 -7.527316 4.735237 10.552500 -1.698888 4.334154 3.412461 -0.555790 -1.135530 -0.798650 18.517696 -11.203919 2.752531 -8.003241 0.110351 -5.533384 3.392836 -5.374528 8.308004 -0.336038 -3.623765 3.558310 -0.407770 1.304630 0.115660 -4.507472 -2.174481 -7.448649 17.236588 0.758025 10.837403 -16.164191 0.854411 -13.812000 2.796841 -8.674067 -11.828770 -29.182493 20.775525 49.934047 7.655260 4.372930 -11.450100 -16.796980 2.297514 0.682652 -49.894298 -2.002911 -3.059715 31.138791 -18.251908 -7.399821 -4.234253 1.679491 1.570010 0.312270 -0.270110 0.312100 10.719404 3.300890 5.838352 69.551611 -2.992446 -7.421900 -13.809728 1.343606 1.276213 1.712449 -0.226027 -1.217950 1.218050 1.024520 -0.251010 
-0.707700 16.977990 -1.879500 -5.147322 -39.828647 6.601376 -14.569179 13.456956 3.602932 8.631675 -2.867562 -22.771275 -9.093081 5.505498 12.594579 -1.658720 4.660772 3.248639 -0.477390 -1.027700 -0.721430 18.577121 -11.370419 2.726726 -7.548784 0.066959 -5.490938 1.543996 -5.099349 8.915719 -0.393238 -3.548544 3.567160 -0.358680 1.229870 0.102220 -4.771543 -1.660517 -7.381893 19.140125 0.401280 11.613518 -19.153368 0.597309 -13.872617 3.035250 -8.671041 -11.917603 -29.389192 21.964732 51.880828 7.351100 5.521220 -14.035690 -17.705898 1.528403 0.776857 -46.428186 -0.773598 -3.314371 30.630806 -16.071156 -6.454704 -4.189945 1.656094 1.616390 0.252870 -0.194810 0.317830 10.734678 4.089856 5.856207 70.702494 -1.757936 -6.373285 -11.835115 -0.213347 1.644596 1.742766 -0.194928 -1.198730 1.239260 0.968980 -0.262380 
-0.710050 16.948090 -1.932990 -6.343897 -42.304439 6.716457 -14.552127 13.322808 3.676458 11.347144 -2.556221 -23.344500 -10.826463 6.444256 14.326036 -1.612013 5.109629 3.026458 -0.421140 -0.943450 -0.661920 18.603656 -11.443895 2.690512 -6.251413 0.095143 -5.768967 -0.639618 -4.699734 9.757638 -0.428853 -3.419455 3.599921 -0.317180 1.156680 0.071940 -4.936697 -1.300433 -7.341424 21.635708 0.087935 12.329861 -21.602737 0.519677 -14.627802 3.337222 -8.678752 -12.124038 -30.118825 23.468710 53.994607 6.744370 6.613520 -16.002310 -17.932097 1.477386 0.925996 -44.115091 0.883416 -3.196914 29.744686 -13.019808 -5.210187 -4.153893 1.612252 1.664470 0.194660 -0.132680 0.312450 10.143413 4.353661 5.860672 72.400712 -1.015995 -6.072673 -11.496200 -0.076668 1.649160 1.745009 -0.157991 -1.193740 1.266620 0.930470 -0.279090 
-0.709430 16.911440 -1.987980 -7.665849 -44.333715 6.768679 -14.575973 13.181386 3.784855 14.128398 -2.137220 -23.826930 -12.508571 7.491780 16.053457 -1.523746 5.640938 2.774627 -0.350930 -0.847240 -0.602730 18.606741 -11.442580 2.642924 -4.926701 0.109954 -5.801042 -2.412501 -4.390076 10.821822 -0.488914 -3.354338 3.601741 -0.281410 1.090080 0.078190 -5.017237 -1.079635 -7.335200 23.815843 -0.421922 13.131885 -23.260974 0.491136 -15.016590 3.556264 -8.523330 -12.472829 -30.663374 24.814664 56.065568 6.328390 7.474060 -17.507780 -18.227536 1.050317 1.262418 -42.182498 2.349000 -2.928734 28.271076 -9.632864 -3.976164 -4.118741 1.602142 1.699720 0.145100 -0.055750 0.325130 9.966023 4.797169 5.985300 73.507688 -0.709975 -6.671499 -12.090722 2.003323 1.174437 1.724525 -0.151183 -1.158300 1.270140 0.879350 -0.278000 
-0.715450 16.861890 -2.039860 -8.498353 -46.240022 6.797053 -14.627497 13.022881 3.949198 16.524012 -1.713792 -24.382102 -14.283331 8.596576 17.472360 -1.407253 6.164825 2.524779 -0.289720 -0.757570 -0.568670 18.592982 -11.396372 2.573198 -3.818175 0.230535 -6.131409 -4.217070 -3.996185 12.040251 -0.511933 -3.307936 3.604719 -0.250860 1.030370 0.073840 -5.053330 -0.943112 -7.360563 24.974239 -0.842062 13.583883 -23.889048 0.439089 -15.182199 3.502152 -8.573144 -12.739631 -31.130125 25.753646 56.412600 6.563270 8.061520 -17.735010 -17.880979 0.976747 1.714015 -41.515265 3.849215 -2.729643 26.925489 -7.037878 -3.035086 -4.074435 1.646575 1.692580 0.109260 -0.018350 0.335570 9.780387 5.040894 5.980428 74.229890 -0.326218 -7.409668 -12.974226 4.552363 0.514598 1.710127 -0.189162 -1.112430 1.236740 0.826480 -0.269340 
-0.726090 16.803310 -2.093270 -9.276782 -48.022999 6.779649 -14.700853 12.892812 4.122695 18.764108 -1.198237 -24.860818 -15.725588 9.676485 18.724143 -1.336288 6.714424 2.285017 -0.287230 -0.745940 -0.579710 18.563354 -11.301398 2.513374 -2.754020 0.366803 -6.330225 -5.796383 -3.630207 13.126557 -0.507503 -3.286485 3.624679 -0.241590 1.022690 0.046240 -5.033787 -0.936869 -7.409300 25.449727 -1.312533 14.172199 -23.293002 0.329979 -15.538065 3.071567 -8.726249 -12.956239 -31.839812 26.684679 55.899789 7.458250 8.493340 -17.958660 -17.099162 1.265401 2.231380 -41.867957 5.586854 -2.520651 25.414376 -4.948306 -2.297711 -4.061715 1.637223 1.702880 0.096730 -0.025150 0.332290 9.998675 4.899091 5.856050 73.886291 -0.027676 -8.409773 -14.065312 8.006789 -0.339984 1.653052 -0.177101 -1.123600 1.248070 0.827780 -0.275120 
-0.738600 16.743390 -2.148040 -10.007439 -49.732932 6.682297 -14.787368 12.838117 4.270066 20.715228 -0.594756 -25.055540 -16.648503 10.567360 19.655731 -1.216385 7.134845 2.112408 -0.273430 -0.702780 -0.591850 18.516835 -11.168131 2.476423 -1.591910 0.480858 -6.365130 -7.401162 -3.207339 14.154919 -0.520372 -3.287941 3.638230 -0.236010 1.019570 0.038010 -4.945083 -1.097416 -7.471929 25.422835 -1.703099 14.670513 -21.708855 0.393746 -15.713272 2.668175 -8.758427 -13.460168 -32.694893 27.794959 55.654856 8.070300 9.144410 -16.926450 -16.851499 1.082520 3.042409 -42.504554 7.873206 -2.576403 23.926326 -3.553307 -1.749463 -4.032514 1.659177 1.676120 0.094540 -0.013310 0.352890 10.841377 5.211926 5.871894 72.564002 -0.015250 -9.560507 -15.437679 11.605987 -1.251824 1.623068 -0.192400 -1.095570 1.239620 0.796440 -0.249190 
-0.755100 16.683160 -2.202420 -10.873062 -51.067432 6.961739 -14.891353 12.816023 4.426712 22.510011 0.017886 -25.648681 -17.074528 11.368389 20.706480 -1.121849 7.539390 1.957562 -0.292200 -0.716900 -0.620680 18.459800 -10.972764 2.458765 -0.283069 0.627522 -6.459576 -8.579225 -2.849996 15.023247 -0.521083 -3.283286 3.653353 -0.254790 1.042000 0.037390 -4.785966 -1.407816 -7.564678 25.214002 -2.009700 15.201990 -19.617984 0.465998 -16.517487 2.301242 -8.786539 -13.881964 -33.575326 28.810635 55.186568 8.700160 9.633200 -15.503920 -16.032321 1.566727 3.672162 -43.877418 10.138223 -2.635927 22.872906 -1.902965 -1.174505 -4.033457 1.666800 1.660860 0.103310 -0.017010 0.367780 11.104739 4.892428 5.853720 71.478088 -0.428717 -10.932783 -16.773131 15.896773 -2.231867 1.580229 -0.181434 -1.088670 1.239350 0.794200 -0.229920 
-0.768210 16.623800 -2.252980 -11.456944 -51.997290 7.242003 -14.991880 12.856981 4.573322 23.805701 0.514220 -26.352777 -17.129656 11.883694 21.374310 -1.062605 7.818767 1.850582 -0.335640 -0.774160 -0.658420 18.393627 -10.771927 2.442762 0.779498 0.854976 -6.795995 -9.294674 -2.591711 16.172696 -0.509137 -3.281508 3.660096 -0.297900 1.067530 0.049490 -4.568969 -1.829705 -7.666462 24.627943 -2.293606 15.890450 -17.401737 0.411838 -18.078479 2.121710 -8.790643 -14.080939 -34.162314 29.626568 54.517354 8.661510 10.250510 -14.320700 -14.827795 2.888472 3.959323 -45.008092 12.271806 -2.722047 21.598009 -0.836266 -0.747455 -4.057372 1.663209 1.655070 0.116030 -0.029710 0.365230 10.640322 3.714671 5.681358 70.984959 -0.989693 -12.121027 -17.845707 20.292185 -3.074546 1.536223 -0.153224 -1.086780 1.227890 0.820220 -0.220980 
-0.783710 16.563180 -2.307680 -12.112445 -53.095379 7.711951 -15.086093 12.886957 4.689020 24.976132 1.036374 -26.893489 -17.011217 12.347086 21.965311 -1.037250 8.075322 1.752618 -0.389300 -0.858870 -0.696490 18.334324 -10.586424 2.445491 1.981020 1.217278 -7.415220 -10.125443 -2.262993 17.674972 -0.483728 -3.310213 3.651655 -0.344640 1.101280 0.053980 -4.394161 -2.182944 -7.757190 24.020984 -2.478516 16.383416 -15.244050 0.473795 -19.365049 1.785535 -8.880101 -14.152539 -34.252987 30.090232 53.329885 8.872350 10.793130 -12.971050 -13.005457 4.385985 4.188078 -45.880471 14.130090 -2.892708 19.948159 0.002911 -0.463831 -4.093550 1.657549 1.658730 0.133410 -0.066200 0.351440 9.793111 2.389445 5.494860 70.922158 -1.349311 -13.111693 -18.460252 24.761568 -3.810770 1.484441 -0.130805 -1.107840 1.212620 0.860320 -0.227190 
-0.789780 16.520110 -2.362490 -12.639190 -53.919910 7.778219 -15.165810 13.002036 4.754762 25.751679 1.459579 -27.276135 -16.378404 12.640541 22.800075 -0.998987 8.217420 1.697384 -0.417040 -0.905140 -0.701170 18.269308 -10.418371 2.474716 3.065511 1.571705 -7.869270 -10.943154 -1.925826 19.356273 -0.490800 -3.356766 3.635877 -0.385240 1.095070 0.058750 -4.161366 -2.608862 -7.864379 23.125248 -2.749053 17.510317 -13.214204 0.724989 -20.721992 1.830566 -8.732442 -14.553523 -33.876851 30.286417 53.428960 8.429320 11.487830 -12.280260 -11.651234 5.236938 4.523634 -46.021733 16.163685 -3.287983 18.580790 0.234243 -0.313960 -4.090311 1.647938 1.668880 0.127570 -0.062700 0.345150 8.798787 1.726902 5.743018 71.356684 -2.194340 -14.463430 -19.203719 29.738297 -4.588033 1.439941 -0.112909 -1.106320 1.190470 0.864210 -0.232060 
